<svg width="22" height="22" viewBox="0 0 22 22" fill="none" xmlns="http://www.w3.org/2000/svg">
<path fill-rule="evenodd" clip-rule="evenodd" d="M11.0001 3.66669C10.4432 3.66669 9.99175 4.11812 9.99175 4.67502H4.95008H4.44591C4.16751 4.67502 3.94175 4.90079 3.94175 5.17919C3.94175 5.45759 4.16751 5.68335 4.44591 5.68335H4.52759L4.40346 5.9795L1.12799 13.7959L0.916748 14.3001V14.7584L0.917051 14.8042C0.941553 17.0107 2.7378 18.7917 4.95008 18.7917C7.16236 18.7917 8.95861 17.0107 8.98311 14.8042L8.98341 14.7584V14.3001L8.77217 13.7959L5.4967 5.9795L5.37257 5.68335H9.99175C9.99175 6.24026 10.4432 6.69169 11.0001 6.69169C11.557 6.69169 12.0084 6.24026 12.0084 5.68335H16.6276L16.5035 5.9795L13.228 13.7959L13.0167 14.3001V14.7584L13.017 14.8042C13.0416 17.0107 14.8378 18.7917 17.0501 18.7917C19.2624 18.7917 21.0586 17.0107 21.0831 14.8042L21.0834 14.7584V14.3001L20.8722 13.7959L17.5967 5.9795L17.4726 5.68335H17.5542C17.8326 5.68335 18.0584 5.45759 18.0584 5.17919C18.0584 4.90079 17.8326 4.67502 17.5542 4.67502H17.0501H12.0084C12.0084 4.11812 11.557 3.66669 11.0001 3.66669ZM4.95008 17.7834C6.60546 17.7834 7.95028 16.4537 7.97478 14.8042H1.92538C1.94989 16.4537 3.2947 17.7834 4.95008 17.7834ZM7.67883 13.7959H2.22133L4.95008 7.28398L7.67883 13.7959ZM17.0501 17.7834C18.7055 17.7834 20.0503 16.4537 20.0748 14.8042H14.0254C14.0499 16.4537 15.3947 17.7834 17.0501 17.7834ZM19.7788 13.7959H14.3213L17.0501 7.28398L19.7788 13.7959Z" fill="#BDBDBD"/>
</svg>
