<svg width="40" height="40" viewBox="0 0 40 40" fill="none" xmlns="http://www.w3.org/2000/svg">
<rect width="40" height="40" rx="20" fill="#ED3729"/>
<path d="M5.91 20.36V19.226H9.802V20.36H5.91ZM15.3768 24.168C14.2008 24.168 13.2722 23.7807 12.5908 23.006C11.9095 22.2313 11.5688 21.0133 11.5688 19.352C11.5688 17.8213 11.9328 16.552 12.6608 15.544C13.3982 14.536 14.3922 14.032 15.6428 14.032C16.6602 14.032 17.6262 14.4053 18.5408 15.152L17.8968 16.006C17.1315 15.362 16.3615 15.04 15.5868 15.04C14.7188 15.04 14.0235 15.4367 13.5008 16.23C12.9782 17.0233 12.7168 18.0547 12.7168 19.324V19.366C13.3982 18.3673 14.3268 17.868 15.5028 17.868C16.4455 17.868 17.2435 18.148 17.8968 18.708C18.5595 19.268 18.8908 20.0007 18.8908 20.906C18.8908 21.8487 18.5548 22.628 17.8828 23.244C17.2108 23.86 16.3755 24.168 15.3768 24.168ZM15.3908 23.188C16.1002 23.188 16.6695 22.9733 17.0988 22.544C17.5375 22.1147 17.7568 21.5733 17.7568 20.92C17.7568 20.3133 17.5328 19.814 17.0848 19.422C16.6368 19.0207 16.0628 18.82 15.3628 18.82C14.6535 18.82 14.0655 19.0393 13.5988 19.478C13.1415 19.9073 12.9128 20.4113 12.9128 20.99C12.9128 21.6153 13.1462 22.138 13.6128 22.558C14.0795 22.978 14.6722 23.188 15.3908 23.188ZM24.3153 18.358C23.8953 18.8527 23.3633 19.1 22.7193 19.1C22.0753 19.1 21.5433 18.8573 21.1233 18.372C20.7126 17.8773 20.5073 17.2847 20.5073 16.594C20.5073 15.9127 20.7173 15.3247 21.1373 14.83C21.5573 14.3353 22.094 14.088 22.7473 14.088C23.3913 14.088 23.9186 14.3353 24.3293 14.83C24.74 15.3153 24.9453 15.9033 24.9453 16.594C24.9453 17.2753 24.7353 17.8633 24.3153 18.358ZM21.5153 24L28.7113 14.2H29.7053L22.5233 24H21.5153ZM28.4873 24.112C27.8433 24.112 27.316 23.8693 26.9053 23.384C26.4946 22.8893 26.2893 22.2967 26.2893 21.606C26.2893 20.9247 26.4993 20.3367 26.9193 19.842C27.3393 19.3473 27.8713 19.1 28.5153 19.1C29.1593 19.1 29.6866 19.3473 30.0973 19.842C30.508 20.3273 30.7133 20.9153 30.7133 21.606C30.7133 22.2967 30.5033 22.8893 30.0833 23.384C29.6726 23.8693 29.1406 24.112 28.4873 24.112ZM22.7473 18.316C23.1206 18.316 23.424 18.1527 23.6573 17.826C23.9 17.49 24.0213 17.0793 24.0213 16.594C24.0213 16.1087 23.8953 15.7027 23.6433 15.376C23.3913 15.04 23.0833 14.872 22.7193 14.872C22.346 14.872 22.038 15.04 21.7953 15.376C21.562 15.7027 21.4453 16.1087 21.4453 16.594C21.4453 17.0793 21.5713 17.49 21.8233 17.826C22.0753 18.1527 22.3833 18.316 22.7473 18.316ZM28.5153 23.328C28.898 23.328 29.206 23.1647 29.4393 22.838C29.6726 22.5113 29.7893 22.1007 29.7893 21.606C29.7893 21.1207 29.6633 20.7147 29.4113 20.388C29.1593 20.052 28.8513 19.884 28.4873 19.884C28.114 19.884 27.806 20.052 27.5633 20.388C27.33 20.7147 27.2133 21.1207 27.2133 21.606C27.2133 22.0913 27.3393 22.502 27.5913 22.838C27.8433 23.1647 28.1513 23.328 28.5153 23.328Z" fill="white"/>
</svg>
