<svg width="24" height="24" viewBox="0 0 24 24" fill="none" xmlns="http://www.w3.org/2000/svg">
<path d="M8.5715 20.5714C9.04489 20.5714 9.42864 20.1877 9.42864 19.7143C9.42864 19.2409 9.04489 18.8571 8.5715 18.8571C8.09811 18.8571 7.71436 19.2409 7.71436 19.7143C7.71436 20.1877 8.09811 20.5714 8.5715 20.5714Z" fill="#ED3729"/>
<path d="M18.0001 20.5714C18.4735 20.5714 18.8572 20.1877 18.8572 19.7143C18.8572 19.2409 18.4735 18.8571 18.0001 18.8571C17.5267 18.8571 17.1429 19.2409 17.1429 19.7143C17.1429 20.1877 17.5267 20.5714 18.0001 20.5714Z" fill="#ED3729"/>
<path d="M1.71436 2.57141H5.14293L7.44007 14.0486C7.51845 14.4432 7.73313 14.7977 8.04654 15.05C8.35994 15.3022 8.7521 15.4363 9.15436 15.4286H17.4858C17.888 15.4363 18.2802 15.3022 18.5936 15.05C18.907 14.7977 19.1217 14.4432 19.2001 14.0486L20.5715 6.85713H6.00007" fill="#ED3729"/>
<path d="M1.71436 2.57141H5.14293L7.44007 14.0486C7.51845 14.4432 7.73313 14.7977 8.04654 15.05C8.35994 15.3022 8.7521 15.4363 9.15436 15.4286H17.4858C17.888 15.4363 18.2802 15.3022 18.5936 15.05C18.907 14.7977 19.1217 14.4432 19.2001 14.0486L20.5715 6.85713H6.00007M9.42864 19.7143C9.42864 20.1877 9.04489 20.5714 8.5715 20.5714C8.09811 20.5714 7.71436 20.1877 7.71436 19.7143C7.71436 19.2409 8.09811 18.8571 8.5715 18.8571C9.04489 18.8571 9.42864 19.2409 9.42864 19.7143ZM18.8572 19.7143C18.8572 20.1877 18.4735 20.5714 18.0001 20.5714C17.5267 20.5714 17.1429 20.1877 17.1429 19.7143C17.1429 19.2409 17.5267 18.8571 18.0001 18.8571C18.4735 18.8571 18.8572 19.2409 18.8572 19.7143Z" stroke="#BDBDBD" stroke-width="1.2" stroke-linecap="round" stroke-linejoin="round"/>
</svg>
