<svg width="24" height="24" viewBox="0 0 24 24" fill="none" xmlns="http://www.w3.org/2000/svg">
<path d="M19.2494 5.6497C18.8306 5.21728 18.3332 4.87424 17.7858 4.64021C17.2385 4.40617 16.6517 4.28571 16.0592 4.28571C15.4667 4.28571 14.88 4.40617 14.3326 4.64021C13.7852 4.87424 13.2879 5.21728 12.869 5.6497L11.9997 6.54672L11.1304 5.6497C10.2843 4.77664 9.1367 4.28616 7.94013 4.28616C6.74356 4.28616 5.596 4.77664 4.7499 5.6497C3.9038 6.52277 3.42847 7.70689 3.42847 8.94159C3.42847 10.1763 3.9038 11.3604 4.7499 12.2335L5.61922 13.1305L11.9997 19.7143L18.3801 13.1305L19.2494 12.2335C19.6685 11.8013 20.001 11.2881 20.2278 10.7232C20.4546 10.1584 20.5713 9.55299 20.5713 8.94159C20.5713 8.33019 20.4546 7.72478 20.2278 7.15995C20.001 6.59511 19.6685 6.08193 19.2494 5.6497Z" fill="#BDBDBD" stroke="#BDBDBD" stroke-width="1.2" stroke-linecap="round" stroke-linejoin="round"/>
</svg>
