<svg width="30" height="30" viewBox="0 0 30 30" fill="none" xmlns="http://www.w3.org/2000/svg">
<path d="M2.14282 3.21428H6.42854L9.29997 17.5607C9.39794 18.054 9.6663 18.4971 10.0581 18.8125C10.4498 19.1278 10.94 19.2953 11.4428 19.2857H21.8571C22.3599 19.2953 22.8501 19.1278 23.2419 18.8125C23.6336 18.4971 23.902 18.054 24 17.5607L25.7143 8.57142H7.49997M11.7857 24.6428C11.7857 25.2346 11.306 25.7143 10.7143 25.7143C10.1225 25.7143 9.64282 25.2346 9.64282 24.6428C9.64282 24.0511 10.1225 23.5714 10.7143 23.5714C11.306 23.5714 11.7857 24.0511 11.7857 24.6428ZM23.5714 24.6428C23.5714 25.2346 23.0917 25.7143 22.5 25.7143C21.9082 25.7143 21.4285 25.2346 21.4285 24.6428C21.4285 24.0511 21.9082 23.5714 22.5 23.5714C23.0917 23.5714 23.5714 24.0511 23.5714 24.6428Z" stroke="#202020" stroke-width="2.2" stroke-linecap="round" stroke-linejoin="round"/>
</svg>
