<svg width="239" height="47" viewBox="0 0 239 47" fill="none" xmlns="http://www.w3.org/2000/svg">
<path d="M26.5 3C23.8079 3 21.1422 3.53025 18.655 4.56047C16.1678 5.59069 13.9079 7.10071 12.0043 9.00431C10.1007 10.9079 8.59069 13.1678 7.56047 15.655C6.53025 18.1422 6 20.8079 6 23.5C6 26.1921 6.53025 28.8578 7.56047 31.345C8.59069 33.8322 10.1007 36.0921 12.0043 37.9957C13.9079 39.8993 16.1678 41.4093 18.655 42.4395C21.1422 43.4698 23.8079 44 26.5 44L26.5 23.5L26.5 3Z" fill="#ED3729"/>
<path d="M47 3C44.3079 3 41.6422 3.53025 39.155 4.56047C36.6678 5.59069 34.4079 7.10071 32.5043 9.00431C30.6007 10.9079 29.0907 13.1678 28.0605 15.655C27.0302 18.1422 26.5 20.8079 26.5 23.5C26.5 26.1921 27.0302 28.8578 28.0605 31.345C29.0907 33.8322 30.6007 36.0921 32.5043 37.9957C34.4079 39.8993 36.6678 41.4093 39.155 42.4395C41.6422 43.4698 44.3079 44 47 44L47 23.5L47 3Z" fill="#ED3729"/>
<path d="M67.5 3C64.8079 3 62.1422 3.53025 59.655 4.56047C57.1678 5.59069 54.9079 7.10071 53.0043 9.00431C51.1007 10.9079 49.5907 13.1678 48.5605 15.655C47.5302 18.1422 47 20.8079 47 23.5C47 26.1921 47.5302 28.8578 48.5605 31.345C49.5907 33.8322 51.1007 36.0921 53.0043 37.9957C54.9079 39.8993 57.1678 41.4093 59.655 42.4395C62.1422 43.4698 64.8079 44 67.5 44L67.5 23.5L67.5 3Z" fill="#ED3729"/>
<path d="M81.11 33.24C80.55 33.24 80.12 33.08 79.82 32.76C79.52 32.44 79.37 32 79.37 31.44V13.41C79.37 12.83 79.53 12.39 79.85 12.09C80.17 11.77 80.61 11.61 81.17 11.61C81.67 11.61 82.06 11.71 82.34 11.91C82.64 12.09 82.91 12.41 83.15 12.87L90.56 26.58H89.6L97.01 12.87C97.25 12.41 97.51 12.09 97.79 11.91C98.07 11.71 98.46 11.61 98.96 11.61C99.52 11.61 99.95 11.77 100.25 12.09C100.55 12.39 100.7 12.83 100.7 13.41V31.44C100.7 32 100.55 32.44 100.25 32.76C99.97 33.08 99.54 33.24 98.96 33.24C98.4 33.24 97.97 33.08 97.67 32.76C97.37 32.44 97.22 32 97.22 31.44V17.55H97.88L91.58 29.04C91.38 29.38 91.17 29.63 90.95 29.79C90.73 29.95 90.43 30.03 90.05 30.03C89.67 30.03 89.36 29.95 89.12 29.79C88.88 29.61 88.67 29.36 88.49 29.04L82.13 17.52H82.85V31.44C82.85 32 82.7 32.44 82.4 32.76C82.12 33.08 81.69 33.24 81.11 33.24ZM107.275 33.24C106.655 33.24 106.175 33.07 105.835 32.73C105.515 32.37 105.355 31.88 105.355 31.26V13.59C105.355 12.95 105.515 12.46 105.835 12.12C106.175 11.78 106.655 11.61 107.275 11.61C107.895 11.61 108.365 11.78 108.685 12.12C109.025 12.46 109.195 12.95 109.195 13.59V31.26C109.195 31.88 109.035 32.37 108.715 32.73C108.395 33.07 107.915 33.24 107.275 33.24ZM114.542 33.24C114.042 33.24 113.632 33.11 113.312 32.85C112.992 32.57 112.802 32.23 112.742 31.83C112.702 31.41 112.842 30.99 113.162 30.57L120.032 21.42V23.07L113.492 14.31C113.172 13.87 113.032 13.45 113.072 13.05C113.112 12.63 113.292 12.29 113.612 12.03C113.932 11.75 114.332 11.61 114.812 11.61C115.212 11.61 115.562 11.71 115.862 11.91C116.182 12.09 116.502 12.4 116.822 12.84L122.222 20.28H120.992L126.362 12.84C126.682 12.4 126.992 12.09 127.292 11.91C127.612 11.71 127.982 11.61 128.402 11.61C128.902 11.61 129.312 11.74 129.632 12C129.952 12.26 130.132 12.6 130.172 13.02C130.212 13.42 130.062 13.85 129.722 14.31L123.182 23.07V21.42L130.022 30.57C130.342 30.99 130.482 31.41 130.442 31.83C130.402 32.23 130.222 32.57 129.902 32.85C129.582 33.11 129.162 33.24 128.642 33.24C128.262 33.24 127.912 33.14 127.592 32.94C127.292 32.74 126.972 32.42 126.632 31.98L120.932 24.18H122.252L116.582 31.98C116.262 32.42 115.942 32.74 115.622 32.94C115.302 33.14 114.942 33.24 114.542 33.24ZM136.018 33C135.358 33 134.848 32.83 134.488 32.49C134.148 32.13 133.978 31.62 133.978 30.96V13.89C133.978 13.23 134.148 12.73 134.488 12.39C134.848 12.03 135.358 11.85 136.018 11.85H146.728C147.228 11.85 147.608 11.98 147.868 12.24C148.148 12.5 148.288 12.87 148.288 13.35C148.288 13.85 148.148 14.24 147.868 14.52C147.608 14.78 147.228 14.91 146.728 14.91H137.668V20.73H146.068C146.588 20.73 146.978 20.86 147.238 21.12C147.498 21.38 147.628 21.76 147.628 22.26C147.628 22.76 147.498 23.14 147.238 23.4C146.978 23.66 146.588 23.79 146.068 23.79H137.668V29.94H146.728C147.228 29.94 147.608 30.07 147.868 30.33C148.148 30.59 148.288 30.97 148.288 31.47C148.288 31.97 148.148 32.35 147.868 32.61C147.608 32.87 147.228 33 146.728 33H136.018ZM153.828 33C153.208 33 152.728 32.83 152.388 32.49C152.048 32.13 151.878 31.64 151.878 31.02V13.71C151.878 13.07 152.038 12.59 152.358 12.27C152.698 11.93 153.178 11.76 153.798 11.76C154.418 11.76 154.888 11.93 155.208 12.27C155.548 12.59 155.718 13.07 155.718 13.71V29.73H164.418C164.958 29.73 165.368 29.87 165.648 30.15C165.948 30.43 166.098 30.83 166.098 31.35C166.098 31.87 165.948 32.28 165.648 32.58C165.368 32.86 164.958 33 164.418 33H153.828ZM170.545 33.15C169.865 33.15 169.315 32.94 168.895 32.52C168.495 32.1 168.295 31.56 168.295 30.9C168.295 30.26 168.495 29.74 168.895 29.34C169.315 28.92 169.865 28.71 170.545 28.71C171.245 28.71 171.785 28.92 172.165 29.34C172.565 29.74 172.765 30.26 172.765 30.9C172.765 31.56 172.565 32.1 172.165 32.52C171.785 32.94 171.245 33.15 170.545 33.15ZM184.75 33.3C183.29 33.3 182 33.11 180.88 32.73C179.78 32.35 178.85 31.79 178.09 31.05C177.33 30.29 176.76 29.35 176.38 28.23C176 27.11 175.81 25.81 175.81 24.33V13.56C175.81 12.9 175.97 12.41 176.29 12.09C176.63 11.77 177.11 11.61 177.73 11.61C178.35 11.61 178.82 11.77 179.14 12.09C179.48 12.41 179.65 12.9 179.65 13.56V24.3C179.65 26.2 180.08 27.63 180.94 28.59C181.82 29.53 183.09 30 184.75 30C186.41 30 187.67 29.53 188.53 28.59C189.39 27.63 189.82 26.2 189.82 24.3V13.56C189.82 12.9 189.98 12.41 190.3 12.09C190.64 11.77 191.12 11.61 191.74 11.61C192.34 11.61 192.8 11.77 193.12 12.09C193.46 12.41 193.63 12.9 193.63 13.56V24.33C193.63 26.29 193.29 27.94 192.61 29.28C191.95 30.62 190.96 31.63 189.64 32.31C188.32 32.97 186.69 33.3 184.75 33.3ZM198.979 33C198.479 33 198.069 32.9 197.749 32.7C197.449 32.5 197.239 32.23 197.119 31.89C197.019 31.53 197.019 31.14 197.119 30.72C197.239 30.28 197.469 29.83 197.809 29.37L209.269 13.83V15.06H198.679C198.119 15.06 197.689 14.92 197.389 14.64C197.109 14.36 196.969 13.96 196.969 13.44C196.969 12.92 197.109 12.53 197.389 12.27C197.689 11.99 198.119 11.85 198.679 11.85H211.099C211.599 11.85 211.999 11.95 212.299 12.15C212.619 12.35 212.829 12.62 212.929 12.96C213.049 13.3 213.049 13.69 212.929 14.13C212.829 14.57 212.609 15.02 212.269 15.48L200.809 30.99V29.79H211.849C212.409 29.79 212.829 29.93 213.109 30.21C213.409 30.47 213.559 30.86 213.559 31.38C213.559 31.9 213.409 32.3 213.109 32.58C212.829 32.86 212.409 33 211.849 33H198.979Z" fill="#202020"/>
</svg>
