<svg width="20" height="20" viewBox="0 0 20 20" fill="none" xmlns="http://www.w3.org/2000/svg">
<g clip-path="url(#clip0_98_1823)">
<path d="M18.2999 14.1449V16.6539C18.3008 16.8868 18.2531 17.1174 18.1598 17.3308C18.0665 17.5442 17.9297 17.7358 17.758 17.8932C17.5864 18.0507 17.3837 18.1706 17.1631 18.2451C16.9425 18.3198 16.7087 18.3475 16.4767 18.3265C13.9031 18.0469 11.4311 17.1675 9.2591 15.759C7.23837 14.475 5.52515 12.7617 4.24109 10.741C2.82766 8.55916 1.94806 6.07507 1.67354 3.48996C1.65263 3.25868 1.68012 3.02559 1.75425 2.80552C1.82837 2.58545 1.94749 2.38322 2.10406 2.21171C2.26061 2.04021 2.45117 1.90318 2.66358 1.80936C2.876 1.71553 3.10563 1.66696 3.33785 1.66674H5.84686C6.25273 1.66274 6.64622 1.80648 6.95397 2.07114C7.26171 2.33579 7.46272 2.70333 7.51953 3.10524C7.62543 3.90818 7.82182 4.69656 8.10497 5.45534C8.21749 5.75469 8.24184 6.08001 8.17514 6.39278C8.10843 6.70554 7.95348 6.99262 7.72861 7.22001L6.66646 8.28216C7.85704 10.376 9.59065 12.1096 11.6844 13.3002L12.7466 12.238C12.974 12.0131 13.2611 11.8582 13.5739 11.7915C13.8866 11.7248 14.212 11.7492 14.5113 11.8617C15.27 12.1448 16.0584 12.3412 16.8614 12.4471C17.2677 12.5044 17.6387 12.7091 17.904 13.0221C18.1692 13.3351 18.3101 13.7347 18.2999 14.1449Z" stroke="white" stroke-width="1.5" stroke-linecap="round" stroke-linejoin="round"/>
</g>
<defs>
<clipPath id="clip0_98_1823">
<rect width="20" height="20" fill="white"/>
</clipPath>
</defs>
</svg>
