<svg width="31" height="26" viewBox="0 0 31 26" fill="none" xmlns="http://www.w3.org/2000/svg">
<path d="M22.8584 5.90259L18.5456 15.9521C18.4801 16.0871 18.4469 16.2366 18.4489 16.3878C18.4489 18.1032 19.1043 19.7483 20.2709 20.9613C21.4376 22.1743 23.0199 22.8557 24.6697 22.8557C26.3196 22.8557 27.9018 22.1743 29.0685 20.9613C30.2351 19.7483 30.8905 18.1032 30.8905 16.3878M22.8584 5.90259L16.3538 2.68102C17.0288 2.95011 17.5889 3.46122 17.9332 4.12207L24.5408 3.11669M22.8584 5.90259L23.1647 5.85648L23.0903 5.36205L22.6309 5.16486L22.5087 5.44958L18.1911 6.09933C18.0513 6.76437 17.6969 7.35968 17.1868 7.78642C16.6767 8.21315 16.0416 8.44562 15.3869 8.44523C14.8721 8.45299 14.3652 8.31325 13.9217 8.04133C13.4782 7.76941 13.1153 7.37579 12.8728 6.90364L11.8413 7.0712M22.8584 5.90259L15.8538 0.5M30.8905 16.3878C30.8872 16.2403 30.8655 16.0938 30.826 15.9521M30.8905 16.3878L30.3906 16.399C30.3906 16.3972 30.3905 16.3955 30.3905 16.3937M30.8905 16.3878H30.3905C30.3905 16.3897 30.3905 16.3917 30.3905 16.3937M30.826 15.9521L25.5722 3.68641M30.826 15.9521L30.3664 16.149L30.3522 16.1158M30.826 15.9521L30.3444 16.0863C30.3471 16.0961 30.3497 16.1059 30.3522 16.1158M25.5722 3.68641C25.4958 3.52097 25.3774 3.38041 25.2296 3.27999C25.0819 3.17956 24.9106 3.12309 24.7342 3.11669M25.5722 3.68641L25.1182 3.89598C25.1174 3.89423 25.1166 3.89249 25.1158 3.89076M25.5722 3.68641L25.1126 3.88328L25.1158 3.89076M24.7342 3.11669H24.5408M24.7342 3.11669V3.61669H24.7234M24.7342 3.11669L24.7161 3.61636C24.7185 3.61645 24.7209 3.61656 24.7234 3.61669M24.5408 3.11669L24.616 3.611L24.5786 3.61669M24.5408 3.11669V3.61669H24.5786M11.8413 7.0712L11.7673 6.57671L11.7642 6.57717M11.8413 7.0712L11.7612 6.57767L11.7642 6.57717M11.8413 7.0712L8.3235 7.5979L8.27193 7.47753L7.81234 7.67443L7.88637 8.16892L8.01588 8.14953L12.5505 18.7337C12.6122 18.8581 12.6453 18.9958 12.6471 19.1358C12.6471 20.8512 11.9917 22.4964 10.8251 23.7094C9.65849 24.9223 8.07621 25.6038 6.42636 25.6038C4.7765 25.6038 3.19422 24.9223 2.02759 23.7094C0.860969 22.4964 0.205566 20.8512 0.205566 19.1358L14.9199 0.5M11.7642 6.57717L12.7926 6.41011L13.1514 6.35182L13.3175 6.67515C13.5191 7.06759 13.8194 7.39206 14.1831 7.61508C14.5466 7.83798 14.9604 7.9516 15.3793 7.94528L15.3872 7.94516V7.94523C15.9225 7.94555 16.4444 7.75562 16.866 7.40292C17.288 7.04986 17.5845 6.55431 17.7018 5.99649L17.7732 5.65658L18.1167 5.6049L23.0159 4.86761L23.904 4.73397L23.5498 5.55923L19.0051 16.1493L19.0005 16.16L18.9954 16.1704C18.9642 16.2348 18.9479 16.3072 18.9489 16.3811L18.949 16.3878H18.9489C18.9489 17.9767 19.5562 19.4969 20.6313 20.6147C21.7058 21.7319 23.1589 22.3557 24.6697 22.3557C26.1805 22.3557 27.6336 21.7319 28.7081 20.6147C29.7819 19.4983 30.389 17.9805 30.3905 16.3937M11.7642 6.57717L7.7383 7.17994L7.09762 7.27587L7.35274 7.87134L12.0909 18.9306L12.0963 18.9433L12.1025 18.9558C12.1303 19.0119 12.1459 19.0749 12.1471 19.1397C12.1461 20.7273 11.539 22.2458 10.4647 23.3627C9.39025 24.4799 7.93718 25.1038 6.42636 25.1038C4.91553 25.1038 3.46246 24.4799 2.38797 23.3627C1.31533 22.2475 0.708388 20.7318 0.705576 19.1469C0.709733 19.0627 0.722434 18.9794 0.743396 18.8983L5.92903 6.75876C5.97066 6.71112 5.99815 6.66176 6.01639 6.6175L6.0583 6.5594L6.07179 6.54069L6.08918 6.52713L6.21811 6.42659L6.22018 6.42498L6.29604 6.39343L6.39997 6.35021L12.6561 5.42096L13.0078 5.36872L13.074 5.01938C13.1545 4.59377 13.3385 4.19854 13.6064 3.87105C13.8743 3.54368 14.2168 3.29529 14.5999 3.14752L14.9199 3.02406V2.68102V0.5M30.3905 16.3937C30.388 16.2997 30.3751 16.2064 30.3522 16.1158M30.3522 16.1158L25.1158 3.89076M25.1158 3.89076C25.0767 3.80835 25.0182 3.74082 24.9485 3.69348C24.8798 3.64673 24.8021 3.62089 24.7234 3.61669M24.7234 3.61669H24.5786M24.5786 3.61669L18.0084 4.61638L17.655 4.67017L17.4898 4.35308C17.1993 3.79549 16.7293 3.36897 16.1687 3.14547L15.8538 3.01996V2.68102V0.5M15.8538 0.5H14.9199M15.8538 0.5H14.9199M13.9521 5.49579C13.952 5.68637 13.9888 5.87546 14.0608 6.05197C14.1328 6.2285 14.2389 6.38943 14.3735 6.52462C14.5082 6.65986 14.6689 6.76658 14.8465 6.83735C15.0183 6.90585 15.202 6.93903 15.3869 6.93468V6.43446C15.5081 6.43896 15.6289 6.41802 15.7421 6.37288C15.8554 6.32775 15.9587 6.25934 16.046 6.17175C16.1332 6.08417 16.2026 5.97919 16.25 5.86311C16.2973 5.74702 16.3217 5.6222 16.3216 5.4961H16.8216C16.8216 5.496 16.8216 5.49589 16.8216 5.49579C16.8215 5.11168 16.6749 4.7396 16.4082 4.46228C16.1408 4.18423 15.7738 4.02423 15.3869 4.02423C14.9999 4.02423 14.633 4.18423 14.3655 4.46228C14.0988 4.7396 13.9522 5.11169 13.9521 5.49579ZM13.9521 5.49579L14.4521 5.4961H13.9521C13.9521 5.496 13.9521 5.49589 13.9521 5.49579ZM6.88638 9.15418L6.42833 8.0785L5.96694 9.15275L2.19579 17.9331L1.89629 18.6304H2.6552H10.1653H10.9216L10.6253 17.9345L6.88638 9.15418ZM2.23619 19.6412H1.60893L1.74877 20.2527C1.99716 21.3387 2.59066 22.31 3.438 23.0081C4.28572 23.7064 5.33776 24.0899 6.42494 24.093L6.4286 24.093C7.51213 24.0882 8.55979 23.7029 9.40209 23.0037C10.244 22.3048 10.831 21.3337 11.0723 20.2499L11.2079 19.6412H10.5843H2.23619ZM28.4409 15.8824H29.1986L28.9006 15.1857L25.1294 6.37182L24.6677 5.29283L24.2094 6.37325L20.4705 15.1871L20.1756 15.8824H20.9308H28.4409ZM20.5118 16.8931H19.8882L20.0237 17.5018C20.2651 18.5856 20.8521 19.5567 21.694 20.2556C22.5363 20.9549 23.5839 21.3401 24.6675 21.345L24.6711 21.345C25.7583 21.3419 26.8103 20.9584 27.6581 20.26C28.5054 19.562 29.0989 18.5907 29.3473 17.5046L29.4871 16.8931H28.8599H20.5118Z" fill="#202020" stroke="#202020"/>
</svg>
