<svg width="40" height="40" viewBox="0 0 40 40" fill="none" xmlns="http://www.w3.org/2000/svg">
<rect width="40" height="40" rx="20" fill="#ED3729"/>
<path d="M5.91 20.36V19.226H9.802V20.36H5.91ZM14.9321 24.168C13.3921 24.168 12.1741 23.5847 11.2781 22.418L12.0761 21.704C12.8695 22.6747 13.8261 23.16 14.9461 23.16C15.5528 23.16 16.0615 22.9827 16.4721 22.628C16.8828 22.2733 17.0881 21.8067 17.0881 21.228C17.0881 20.6307 16.8361 20.1687 16.3321 19.842C15.8281 19.506 15.1655 19.338 14.3441 19.338H13.7141L13.4901 18.68L16.5841 15.194H11.7961V14.2H18.0541V15.012L14.9741 18.428C15.9075 18.5027 16.6775 18.7733 17.2841 19.24C17.9001 19.6973 18.2081 20.3553 18.2081 21.214C18.2081 22.0727 17.8908 22.782 17.2561 23.342C16.6308 23.8927 15.8561 24.168 14.9321 24.168ZM23.7001 18.358C23.2801 18.8527 22.7481 19.1 22.1041 19.1C21.4601 19.1 20.9281 18.8573 20.5081 18.372C20.0974 17.8773 19.8921 17.2847 19.8921 16.594C19.8921 15.9127 20.1021 15.3247 20.5221 14.83C20.9421 14.3353 21.4787 14.088 22.1321 14.088C22.7761 14.088 23.3034 14.3353 23.7141 14.83C24.1247 15.3153 24.3301 15.9033 24.3301 16.594C24.3301 17.2753 24.1201 17.8633 23.7001 18.358ZM20.9001 24L28.0961 14.2H29.0901L21.9081 24H20.9001ZM27.8721 24.112C27.2281 24.112 26.7007 23.8693 26.2901 23.384C25.8794 22.8893 25.6741 22.2967 25.6741 21.606C25.6741 20.9247 25.8841 20.3367 26.3041 19.842C26.7241 19.3473 27.2561 19.1 27.9001 19.1C28.5441 19.1 29.0714 19.3473 29.4821 19.842C29.8927 20.3273 30.0981 20.9153 30.0981 21.606C30.0981 22.2967 29.8881 22.8893 29.4681 23.384C29.0574 23.8693 28.5254 24.112 27.8721 24.112ZM22.1321 18.316C22.5054 18.316 22.8087 18.1527 23.0421 17.826C23.2847 17.49 23.4061 17.0793 23.4061 16.594C23.4061 16.1087 23.2801 15.7027 23.0281 15.376C22.7761 15.04 22.4681 14.872 22.1041 14.872C21.7307 14.872 21.4227 15.04 21.1801 15.376C20.9467 15.7027 20.8301 16.1087 20.8301 16.594C20.8301 17.0793 20.9561 17.49 21.2081 17.826C21.4601 18.1527 21.7681 18.316 22.1321 18.316ZM27.9001 23.328C28.2827 23.328 28.5907 23.1647 28.8241 22.838C29.0574 22.5113 29.1741 22.1007 29.1741 21.606C29.1741 21.1207 29.0481 20.7147 28.7961 20.388C28.5441 20.052 28.2361 19.884 27.8721 19.884C27.4987 19.884 27.1907 20.052 26.9481 20.388C26.7147 20.7147 26.5981 21.1207 26.5981 21.606C26.5981 22.0913 26.7241 22.502 26.9761 22.838C27.2281 23.1647 27.5361 23.328 27.9001 23.328Z" fill="white"/>
</svg>
