<svg width="19" height="19" viewBox="0 0 19 19" fill="none" xmlns="http://www.w3.org/2000/svg">
<circle cx="9.5" cy="9.5" r="9.5" fill="#ED3729"/>
<path d="M4.56 13C4.38667 13 4.25 12.9533 4.15 12.86C4.05667 12.76 4.01 12.6267 4.01 12.46C4.01 12.2867 4.05667 12.1567 4.15 12.07C4.25 11.9833 4.38667 11.94 4.56 11.94H5.68V7.03H6.3L4.83 7.92C4.70333 7.99333 4.58333 8.02333 4.47 8.01C4.36333 7.99 4.27 7.94333 4.19 7.87C4.11667 7.79 4.06667 7.69667 4.04 7.59C4.01333 7.48333 4.02 7.37667 4.06 7.27C4.10667 7.15667 4.19333 7.06333 4.32 6.99L5.7 6.16C5.83333 6.08 5.96667 6.01333 6.1 5.96C6.23333 5.9 6.35667 5.87 6.47 5.87C6.61 5.87 6.72667 5.91 6.82 5.99C6.91333 6.06333 6.96 6.18667 6.96 6.36V11.94H7.98C8.15333 11.94 8.28667 11.9833 8.38 12.07C8.48 12.1567 8.53 12.2867 8.53 12.46C8.53 12.6333 8.48 12.7667 8.38 12.86C8.28667 12.9533 8.15333 13 7.98 13H4.56ZM10.3261 13C10.1128 13 9.95609 12.9533 9.85609 12.86C9.76276 12.76 9.71609 12.6167 9.71609 12.43C9.71609 12.3167 9.74609 12.2067 9.80609 12.1C9.86609 11.9933 9.95276 11.88 10.0661 11.76L12.0761 9.62C12.3828 9.3 12.6028 9.01 12.7361 8.75C12.8694 8.48333 12.9361 8.21667 12.9361 7.95C12.9361 7.61667 12.8294 7.36333 12.6161 7.19C12.4094 7.01667 12.1061 6.93 11.7061 6.93C11.4794 6.93 11.2528 6.96333 11.0261 7.03C10.7994 7.09 10.5694 7.19667 10.3361 7.35C10.2161 7.43 10.1028 7.46333 9.99609 7.45C9.89609 7.43667 9.80609 7.39333 9.72609 7.32C9.65276 7.24667 9.60276 7.15667 9.57609 7.05C9.54943 6.94333 9.55276 6.83667 9.58609 6.73C9.62609 6.61667 9.70609 6.52 9.82609 6.44C10.1128 6.24667 10.4328 6.1 10.7861 6C11.1461 5.9 11.5061 5.85 11.8661 5.85C12.3728 5.85 12.7994 5.92667 13.1461 6.08C13.4928 6.23333 13.7561 6.45667 13.9361 6.75C14.1161 7.04333 14.2061 7.4 14.2061 7.82C14.2061 8.1 14.1594 8.37333 14.0661 8.64C13.9794 8.90667 13.8428 9.17667 13.6561 9.45C13.4761 9.72333 13.2394 10.0133 12.9461 10.32L11.0661 12.28V11.94H14.0061C14.1861 11.94 14.3228 11.9833 14.4161 12.07C14.5094 12.1567 14.5561 12.2867 14.5561 12.46C14.5561 12.6333 14.5094 12.7667 14.4161 12.86C14.3228 12.9533 14.1861 13 14.0061 13H10.3261Z" fill="white"/>
</svg>
